<svg xmlns="http://www.w3.org/2000/svg" viewBox="0 0 64 64" role="img" aria-label="WhatsApp Trigger">
  <circle cx="32" cy="32" r="30" fill="#25D366"/>
  <path fill="#fff" d="M18.4 47.6 20.8 39A17.2 17.2 0 1 1 27 45.1l-8.6 2.5Zm9-7.2.6.4a12.8 12.8 0 1 0-3.9-3.9l.4.6-1.2 4.1 4.1-1.2Z"/>
  <path fill="#fff" d="M39.6 35.1c-.4-.2-2.5-1.2-2.9-1.4-.4-.1-.7-.2-1 .2-.3.4-1.1 1.4-1.4 1.7-.3.3-.5.3-.9.1a10.5 10.5 0 0 1-5.2-4.5c-.3-.5 0-.8.2-1l.7-.8c.2-.3.3-.5.5-.8.1-.3.1-.6 0-.8-.1-.2-1-2.4-1.4-3.3-.4-.9-.7-.8-1-.8h-.9c-.3 0-.8.1-1.2.6-.4.4-1.6 1.6-1.6 3.8s1.7 4.4 1.9 4.7c.2.3 3.2 4.9 7.8 6.8 1.1.5 1.9.8 2.6 1 1.1.3 2.1.3 2.9.2.9-.1 2.5-1 2.9-2 .4-1 .4-1.9.3-2.1-.1-.3-.4-.4-.8-.6Z"/>
  <path fill="#0B5" d="M43 12h9v9h-4v-2.2l-5.7 5.7-2.8-2.8 5.7-5.7H43v-4Z"/>
</svg>
