<svg xmlns="http://www.w3.org/2000/svg" width="1200" height="640" viewBox="0 0 1200 640">
  <defs>
    <marker id="arrow" viewBox="0 0 10 10" refX="9" refY="5" markerWidth="7" markerHeight="7" orient="auto-start-reverse">
      <path d="M 0 0 L 10 5 L 0 10 z" fill="#aeb8c2"/>
    </marker>
    <filter id="shadow" x="-10%" y="-10%" width="120%" height="120%">
      <feDropShadow dx="0" dy="2" stdDeviation="2" flood-color="#d7dde3" flood-opacity="0.9"/>
    </filter>
  </defs>
  <rect width="1200" height="640" fill="#f7fafc"/>
  <text x="34" y="42" font-size="24" font-weight="800" fill="#13293d">System Context: CtrlChecks Platform Boundaries</text>
  <g filter="url(#shadow)">
  <rect x="60" y="150" width="210" height="110" rx="10" fill="#ffffff" stroke="#2a9d8f" stroke-width="2"/><text x="165" y="175" text-anchor="middle" font-size="15" font-weight="700" fill="#1f2933">Browser SPA</text><text x="165" y="197" text-anchor="middle" font-size="12" fill="#607080">React, Vite, workflow canvas</text>
<rect x="380" y="130" width="250" height="150" rx="10" fill="#ffffff" stroke="#2f6f9f" stroke-width="2"/><text x="505" y="155" text-anchor="middle" font-size="15" font-weight="700" fill="#1f2933">Worker API</text><text x="505" y="177" text-anchor="middle" font-size="12" fill="#607080">Express runtime, AI, execution</text><text x="505" y="192" text-anchor="middle" font-size="12" fill="#607080">authority</text>
<rect x="770" y="70" width="230" height="100" rx="10" fill="#ffffff" stroke="#4f9d69" stroke-width="2"/><text x="885" y="95" text-anchor="middle" font-size="15" font-weight="700" fill="#1f2933">Supabase</text><text x="885" y="117" text-anchor="middle" font-size="12" fill="#607080">Auth, Postgres, storage</text>
<rect x="770" y="220" width="230" height="100" rx="10" fill="#ffffff" stroke="#d49a2a" stroke-width="2"/><text x="885" y="245" text-anchor="middle" font-size="15" font-weight="700" fill="#1f2933">Google Gemini</text><text x="885" y="267" text-anchor="middle" font-size="12" fill="#607080">Generation, chat, analysis</text>
<rect x="770" y="370" width="230" height="100" rx="10" fill="#ffffff" stroke="#c8553d" stroke-width="2"/><text x="885" y="395" text-anchor="middle" font-size="15" font-weight="700" fill="#1f2933">Third-party APIs</text><text x="885" y="417" text-anchor="middle" font-size="12" fill="#607080">Google, Slack, CRM, DB,</text><text x="885" y="432" text-anchor="middle" font-size="12" fill="#607080">payments</text>
<rect x="380" y="400" width="250" height="105" rx="10" fill="#ffffff" stroke="#2a9d8f" stroke-width="2"/><text x="505" y="425" text-anchor="middle" font-size="15" font-weight="700" fill="#1f2933">Realtime + Queues</text><text x="505" y="447" text-anchor="middle" font-size="12" fill="#607080">WebSocket, Redis, Kafka path</text>
<line x1="270" y1="205" x2="380" y2="205" stroke="#aeb8c2" stroke-width="2.4" marker-end="url(#arrow)"/><rect x="279" y="187" width="92" height="20" rx="10" fill="#f7fafc" stroke="#aeb8c2" stroke-width="1"/><text x="325" y="201" text-anchor="middle" font-size="11" fill="#607080">REST/WS</text>
<line x1="630" y1="180" x2="770" y2="125" stroke="#aeb8c2" stroke-width="2.4" marker-end="url(#arrow)"/><rect x="654" y="134.5" width="92" height="20" rx="10" fill="#f7fafc" stroke="#aeb8c2" stroke-width="1"/><text x="700" y="148.5" text-anchor="middle" font-size="11" fill="#607080">data</text>
<line x1="630" y1="210" x2="770" y2="270" stroke="#aeb8c2" stroke-width="2.4" marker-end="url(#arrow)"/><rect x="654" y="222" width="92" height="20" rx="10" fill="#f7fafc" stroke="#aeb8c2" stroke-width="1"/><text x="700" y="236" text-anchor="middle" font-size="11" fill="#607080">LLM</text>
<line x1="630" y1="245" x2="770" y2="420" stroke="#aeb8c2" stroke-width="2.4" marker-end="url(#arrow)"/><rect x="654" y="314.5" width="92" height="20" rx="10" fill="#f7fafc" stroke="#aeb8c2" stroke-width="1"/><text x="700" y="328.5" text-anchor="middle" font-size="11" fill="#607080">actions</text>
<line x1="505" y1="280" x2="505" y2="400" stroke="#aeb8c2" stroke-width="2.4" marker-end="url(#arrow)"/><rect x="459" y="322" width="92" height="20" rx="10" fill="#f7fafc" stroke="#aeb8c2" stroke-width="1"/><text x="505" y="336" text-anchor="middle" font-size="11" fill="#607080">events</text>
  </g>
</svg>