<svg xmlns="http://www.w3.org/2000/svg" width="1200" height="640" viewBox="0 0 1200 640">
  <defs>
    <marker id="arrow" viewBox="0 0 10 10" refX="9" refY="5" markerWidth="7" markerHeight="7" orient="auto-start-reverse">
      <path d="M 0 0 L 10 5 L 0 10 z" fill="#aeb8c2"/>
    </marker>
    <filter id="shadow" x="-10%" y="-10%" width="120%" height="120%">
      <feDropShadow dx="0" dy="2" stdDeviation="2" flood-color="#d7dde3" flood-opacity="0.9"/>
    </filter>
  </defs>
  <rect width="1200" height="640" fill="#f7fafc"/>
  <text x="34" y="42" font-size="24" font-weight="800" fill="#13293d">Monorepo Structure: Product, Runtime, Documentation, Infrastructure</text>
  <g filter="url(#shadow)">
  <rect x="70" y="130" width="230" height="120" rx="10" fill="#ffffff" stroke="#2a9d8f" stroke-width="2"/><text x="185" y="155" text-anchor="middle" font-size="15" font-weight="700" fill="#1f2933">ctrl_checks/</text><text x="185" y="177" text-anchor="middle" font-size="12" fill="#607080">React frontend, pages, canvas,</text><text x="185" y="192" text-anchor="middle" font-size="12" fill="#607080">stores</text>
<rect x="360" y="130" width="250" height="120" rx="10" fill="#ffffff" stroke="#2f6f9f" stroke-width="2"/><text x="485" y="155" text-anchor="middle" font-size="15" font-weight="700" fill="#1f2933">worker/</text><text x="485" y="177" text-anchor="middle" font-size="12" fill="#607080">Express API, registry, AI,</text><text x="485" y="192" text-anchor="middle" font-size="12" fill="#607080">execution</text>
<rect x="670" y="130" width="220" height="120" rx="10" fill="#ffffff" stroke="#4f9d69" stroke-width="2"/><text x="780" y="155" text-anchor="middle" font-size="15" font-weight="700" fill="#1f2933">docs/</text><text x="780" y="177" text-anchor="middle" font-size="12" fill="#607080">Investor, client, setup,</text><text x="780" y="192" text-anchor="middle" font-size="12" fill="#607080">operations</text>
<rect x="950" y="130" width="190" height="120" rx="10" fill="#ffffff" stroke="#d49a2a" stroke-width="2"/><text x="1045" y="155" text-anchor="middle" font-size="15" font-weight="700" fill="#1f2933">infra/</text><text x="1045" y="177" text-anchor="middle" font-size="12" fill="#607080">Docker, Nginx, HPA</text>
<rect x="210" y="370" width="230" height="110" rx="10" fill="#ffffff" stroke="#c8553d" stroke-width="2"/><text x="325" y="395" text-anchor="middle" font-size="15" font-weight="700" fill="#1f2933">scripts/</text><text x="325" y="417" text-anchor="middle" font-size="12" fill="#607080">Migrations, generation,</text><text x="325" y="432" text-anchor="middle" font-size="12" fill="#607080">validation tools</text>
<rect x="510" y="370" width="230" height="110" rx="10" fill="#ffffff" stroke="#2a9d8f" stroke-width="2"/><text x="625" y="395" text-anchor="middle" font-size="15" font-weight="700" fill="#1f2933">training/</text><text x="625" y="417" text-anchor="middle" font-size="12" fill="#607080">Workflow examples and datasets</text>
<rect x="810" y="370" width="230" height="110" rx="10" fill="#ffffff" stroke="#2f6f9f" stroke-width="2"/><text x="925" y="395" text-anchor="middle" font-size="15" font-weight="700" fill="#1f2933">infrastructure/</text><text x="925" y="417" text-anchor="middle" font-size="12" fill="#607080">Terraform and cloud modules</text>
<line x1="300" y1="190" x2="360" y2="190" stroke="#aeb8c2" stroke-width="2.4" marker-end="url(#arrow)"/>
<line x1="610" y1="190" x2="670" y2="190" stroke="#aeb8c2" stroke-width="2.4" marker-end="url(#arrow)"/>
<line x1="890" y1="190" x2="950" y2="190" stroke="#aeb8c2" stroke-width="2.4" marker-end="url(#arrow)"/>
<line x1="475" y1="250" x2="340" y2="370" stroke="#aeb8c2" stroke-width="2.4" marker-end="url(#arrow)"/>
<line x1="500" y1="250" x2="625" y2="370" stroke="#aeb8c2" stroke-width="2.4" marker-end="url(#arrow)"/>
<line x1="775" y1="250" x2="925" y2="370" stroke="#aeb8c2" stroke-width="2.4" marker-end="url(#arrow)"/>
  </g>
</svg>