<svg xmlns="http://www.w3.org/2000/svg" width="1200" height="680" viewBox="0 0 1200 680">
  <defs>
    <marker id="arrow" viewBox="0 0 10 10" refX="9" refY="5" markerWidth="7" markerHeight="7" orient="auto-start-reverse">
      <path d="M 0 0 L 10 5 L 0 10 z" fill="#aeb8c2"/>
    </marker>
    <filter id="shadow" x="-10%" y="-10%" width="120%" height="120%">
      <feDropShadow dx="0" dy="2" stdDeviation="2" flood-color="#d7dde3" flood-opacity="0.9"/>
    </filter>
  </defs>
  <rect width="1200" height="680" fill="#f7fafc"/>
  <text x="34" y="42" font-size="24" font-weight="800" fill="#13293d">Runtime Topology: Request Paths and Dependencies</text>
  <g filter="url(#shadow)">
  <rect x="70" y="145" width="190" height="100" rx="10" fill="#ffffff" stroke="#2a9d8f" stroke-width="2"/><text x="165" y="170" text-anchor="middle" font-size="15" font-weight="700" fill="#1f2933">User</text><text x="165" y="192" text-anchor="middle" font-size="12" fill="#607080">Builder, dashboard, triggers</text>
<rect x="340" y="90" width="240" height="100" rx="10" fill="#ffffff" stroke="#2a9d8f" stroke-width="2"/><text x="460" y="115" text-anchor="middle" font-size="15" font-weight="700" fill="#1f2933">Frontend</text><text x="460" y="137" text-anchor="middle" font-size="12" fill="#607080">Auth state, canvas, API</text><text x="460" y="152" text-anchor="middle" font-size="12" fill="#607080">clients</text>
<rect x="340" y="260" width="240" height="110" rx="10" fill="#ffffff" stroke="#2f6f9f" stroke-width="2"/><text x="460" y="285" text-anchor="middle" font-size="15" font-weight="700" fill="#1f2933">Worker API</text><text x="460" y="307" text-anchor="middle" font-size="12" fill="#607080">Routes, middleware, services</text>
<rect x="680" y="70" width="220" height="95" rx="10" fill="#ffffff" stroke="#4f9d69" stroke-width="2"/><text x="790" y="95" text-anchor="middle" font-size="15" font-weight="700" fill="#1f2933">Supabase Client</text><text x="790" y="117" text-anchor="middle" font-size="12" fill="#607080">User auth and app data</text>
<rect x="680" y="235" width="220" height="95" rx="10" fill="#ffffff" stroke="#4f9d69" stroke-width="2"/><text x="790" y="260" text-anchor="middle" font-size="15" font-weight="700" fill="#1f2933">Service Role Data</text><text x="790" y="282" text-anchor="middle" font-size="12" fill="#607080">Workflow persistence and logs</text>
<rect x="680" y="400" width="220" height="95" rx="10" fill="#ffffff" stroke="#d49a2a" stroke-width="2"/><text x="790" y="425" text-anchor="middle" font-size="15" font-weight="700" fill="#1f2933">LLM + Integrations</text><text x="790" y="447" text-anchor="middle" font-size="12" fill="#607080">Gemini and connector APIs</text>
<rect x="965" y="235" width="170" height="95" rx="10" fill="#ffffff" stroke="#c8553d" stroke-width="2"/><text x="1050" y="260" text-anchor="middle" font-size="15" font-weight="700" fill="#1f2933">Queue Layer</text><text x="1050" y="282" text-anchor="middle" font-size="12" fill="#607080">Redis/Kafka optional</text>
<line x1="260" y1="195" x2="340" y2="140" stroke="#aeb8c2" stroke-width="2.4" marker-end="url(#arrow)"/><rect x="254" y="149.5" width="92" height="20" rx="10" fill="#f7fafc" stroke="#aeb8c2" stroke-width="1"/><text x="300" y="163.5" text-anchor="middle" font-size="11" fill="#607080">UI</text>
<line x1="460" y1="190" x2="460" y2="260" stroke="#aeb8c2" stroke-width="2.4" marker-end="url(#arrow)"/><rect x="414" y="207" width="92" height="20" rx="10" fill="#f7fafc" stroke="#aeb8c2" stroke-width="1"/><text x="460" y="221" text-anchor="middle" font-size="11" fill="#607080">API calls</text>
<line x1="580" y1="132" x2="680" y2="118" stroke="#aeb8c2" stroke-width="2.4" marker-end="url(#arrow)"/><rect x="584" y="107" width="92" height="20" rx="10" fill="#f7fafc" stroke="#aeb8c2" stroke-width="1"/><text x="630" y="121" text-anchor="middle" font-size="11" fill="#607080">auth</text>
<line x1="580" y1="315" x2="680" y2="282" stroke="#aeb8c2" stroke-width="2.4" marker-end="url(#arrow)"/><rect x="584" y="280.5" width="92" height="20" rx="10" fill="#f7fafc" stroke="#aeb8c2" stroke-width="1"/><text x="630" y="294.5" text-anchor="middle" font-size="11" fill="#607080">server data</text>
<line x1="580" y1="335" x2="680" y2="448" stroke="#aeb8c2" stroke-width="2.4" marker-end="url(#arrow)"/><rect x="584" y="373.5" width="92" height="20" rx="10" fill="#f7fafc" stroke="#aeb8c2" stroke-width="1"/><text x="630" y="387.5" text-anchor="middle" font-size="11" fill="#607080">AI/actions</text>
<line x1="900" y1="282" x2="965" y2="282" stroke="#aeb8c2" stroke-width="2.4" marker-end="url(#arrow)"/><rect x="886.5" y="264" width="92" height="20" rx="10" fill="#f7fafc" stroke="#aeb8c2" stroke-width="1"/><text x="932.5" y="278" text-anchor="middle" font-size="11" fill="#607080">jobs</text>
  </g>
</svg>