<svg xmlns="http://www.w3.org/2000/svg" width="1300" height="760" viewBox="0 0 1300 760">
  <defs>
    <marker id="arrow" viewBox="0 0 10 10" refX="9" refY="5" markerWidth="7" markerHeight="7" orient="auto-start-reverse">
      <path d="M 0 0 L 10 5 L 0 10 z" fill="#aeb8c2"/>
    </marker>
    <filter id="shadow" x="-10%" y="-10%" width="120%" height="120%">
      <feDropShadow dx="0" dy="2" stdDeviation="2" flood-color="#d7dde3" flood-opacity="0.9"/>
    </filter>
  </defs>
  <rect width="1300" height="760" fill="#f7fafc"/>
  <text x="34" y="42" font-size="24" font-weight="800" fill="#13293d">End-to-End Lifecycle: From User Intent to Monitored Result</text>
  <g filter="url(#shadow)">
  <rect x="60" y="120" width="230" height="90" rx="10" fill="#ffffff" stroke="#2a9d8f" stroke-width="2"/><text x="175" y="145" text-anchor="middle" font-size="15" font-weight="700" fill="#1f2933">1. Frontend boot</text><text x="175" y="167" text-anchor="middle" font-size="12" fill="#607080">Entry and intent</text><line x1="290" y1="165" x2="360" y2="165" stroke="#aeb8c2" stroke-width="2.4" marker-end="url(#arrow)"/>
<rect x="360" y="120" width="230" height="90" rx="10" fill="#ffffff" stroke="#2f6f9f" stroke-width="2"/><text x="475" y="145" text-anchor="middle" font-size="15" font-weight="700" fill="#1f2933">2. Auth + session</text><text x="475" y="167" text-anchor="middle" font-size="12" fill="#607080">Entry and intent</text><line x1="590" y1="165" x2="660" y2="165" stroke="#aeb8c2" stroke-width="2.4" marker-end="url(#arrow)"/>
<rect x="660" y="120" width="230" height="90" rx="10" fill="#ffffff" stroke="#4f9d69" stroke-width="2"/><text x="775" y="145" text-anchor="middle" font-size="15" font-weight="700" fill="#1f2933">3. Prompt or canvas</text><text x="775" y="167" text-anchor="middle" font-size="12" fill="#607080">Entry and intent</text><line x1="890" y1="165" x2="960" y2="165" stroke="#aeb8c2" stroke-width="2.4" marker-end="url(#arrow)"/>
<rect x="960" y="120" width="230" height="90" rx="10" fill="#ffffff" stroke="#d49a2a" stroke-width="2"/><text x="1075" y="145" text-anchor="middle" font-size="15" font-weight="700" fill="#1f2933">4. API request</text><text x="1075" y="167" text-anchor="middle" font-size="12" fill="#607080">Entry and intent</text><line x1="1075" y1="210" x2="175" y2="285" stroke="#aeb8c2" stroke-width="2.4" marker-end="url(#arrow)"/>
<rect x="60" y="285" width="230" height="90" rx="10" fill="#ffffff" stroke="#2a9d8f" stroke-width="2"/><text x="175" y="310" text-anchor="middle" font-size="15" font-weight="700" fill="#1f2933">5. AI generation</text><text x="175" y="332" text-anchor="middle" font-size="12" fill="#607080">Build and validate</text><line x1="290" y1="330" x2="360" y2="330" stroke="#aeb8c2" stroke-width="2.4" marker-end="url(#arrow)"/>
<rect x="360" y="285" width="230" height="90" rx="10" fill="#ffffff" stroke="#2f6f9f" stroke-width="2"/><text x="475" y="310" text-anchor="middle" font-size="15" font-weight="700" fill="#1f2933">6. Graph orchestration</text><text x="475" y="332" text-anchor="middle" font-size="12" fill="#607080">Build and validate</text><line x1="590" y1="330" x2="660" y2="330" stroke="#aeb8c2" stroke-width="2.4" marker-end="url(#arrow)"/>
<rect x="660" y="285" width="230" height="90" rx="10" fill="#ffffff" stroke="#4f9d69" stroke-width="2"/><text x="775" y="310" text-anchor="middle" font-size="15" font-weight="700" fill="#1f2933">7. Human review</text><text x="775" y="332" text-anchor="middle" font-size="12" fill="#607080">Build and validate</text><line x1="890" y1="330" x2="960" y2="330" stroke="#aeb8c2" stroke-width="2.4" marker-end="url(#arrow)"/>
<rect x="960" y="285" width="230" height="90" rx="10" fill="#ffffff" stroke="#d49a2a" stroke-width="2"/><text x="1075" y="310" text-anchor="middle" font-size="15" font-weight="700" fill="#1f2933">8. Save workflow</text><text x="1075" y="332" text-anchor="middle" font-size="12" fill="#607080">Build and validate</text><line x1="1075" y1="375" x2="175" y2="450" stroke="#aeb8c2" stroke-width="2.4" marker-end="url(#arrow)"/>
<rect x="60" y="450" width="230" height="90" rx="10" fill="#ffffff" stroke="#2a9d8f" stroke-width="2"/><text x="175" y="475" text-anchor="middle" font-size="15" font-weight="700" fill="#1f2933">9. Credentials</text><text x="175" y="497" text-anchor="middle" font-size="12" fill="#607080">Execute and observe</text><line x1="290" y1="495" x2="360" y2="495" stroke="#aeb8c2" stroke-width="2.4" marker-end="url(#arrow)"/>
<rect x="360" y="450" width="230" height="90" rx="10" fill="#ffffff" stroke="#2f6f9f" stroke-width="2"/><text x="475" y="475" text-anchor="middle" font-size="15" font-weight="700" fill="#1f2933">10. Trigger/run</text><text x="475" y="497" text-anchor="middle" font-size="12" fill="#607080">Execute and observe</text><line x1="590" y1="495" x2="660" y2="495" stroke="#aeb8c2" stroke-width="2.4" marker-end="url(#arrow)"/>
<rect x="660" y="450" width="230" height="90" rx="10" fill="#ffffff" stroke="#4f9d69" stroke-width="2"/><text x="775" y="475" text-anchor="middle" font-size="15" font-weight="700" fill="#1f2933">11. Node execution</text><text x="775" y="497" text-anchor="middle" font-size="12" fill="#607080">Execute and observe</text><line x1="890" y1="495" x2="960" y2="495" stroke="#aeb8c2" stroke-width="2.4" marker-end="url(#arrow)"/>
<rect x="960" y="450" width="230" height="90" rx="10" fill="#ffffff" stroke="#d49a2a" stroke-width="2"/><text x="1075" y="475" text-anchor="middle" font-size="15" font-weight="700" fill="#1f2933">12. Logs + results</text><text x="1075" y="497" text-anchor="middle" font-size="12" fill="#607080">Execute and observe</text>
  </g>
</svg>