<svg xmlns="http://www.w3.org/2000/svg" width="1300" height="760" viewBox="0 0 1300 760">
  <defs>
    <marker id="arrow" viewBox="0 0 10 10" refX="9" refY="5" markerWidth="7" markerHeight="7" orient="auto-start-reverse">
      <path d="M 0 0 L 10 5 L 0 10 z" fill="#aeb8c2"/>
    </marker>
    <filter id="shadow" x="-10%" y="-10%" width="120%" height="120%">
      <feDropShadow dx="0" dy="2" stdDeviation="2" flood-color="#d7dde3" flood-opacity="0.9"/>
    </filter>
  </defs>
  <rect width="1300" height="760" fill="#f7fafc"/>
  <text x="34" y="42" font-size="24" font-weight="800" fill="#13293d">AI Workflow Generation Pipeline: Prompt to Executable DAG</text>
  <g filter="url(#shadow)">
  <rect x="70" y="120" width="300" height="105" rx="10" fill="#ffffff" stroke="#2a9d8f" stroke-width="2"/><text x="220" y="145" text-anchor="middle" font-size="15" font-weight="700" fill="#1f2933">1. Intent</text><text x="220" y="167" text-anchor="middle" font-size="12" fill="#607080">Gemini-assisted with registry</text><text x="220" y="182" text-anchor="middle" font-size="12" fill="#607080">guardrails</text><line x1="370" y1="172" x2="465" y2="172" stroke="#aeb8c2" stroke-width="2.4" marker-end="url(#arrow)"/>
<rect x="465" y="120" width="300" height="105" rx="10" fill="#ffffff" stroke="#2f6f9f" stroke-width="2"/><text x="615" y="145" text-anchor="middle" font-size="15" font-weight="700" fill="#1f2933">2. Capability</text><text x="615" y="163" text-anchor="middle" font-size="15" font-weight="700" fill="#1f2933">selection</text><text x="615" y="185" text-anchor="middle" font-size="12" fill="#607080">Gemini-assisted with registry</text><text x="615" y="200" text-anchor="middle" font-size="12" fill="#607080">guardrails</text><line x1="765" y1="172" x2="860" y2="172" stroke="#aeb8c2" stroke-width="2.4" marker-end="url(#arrow)"/>
<rect x="860" y="120" width="300" height="105" rx="10" fill="#ffffff" stroke="#2a9d8f" stroke-width="2"/><text x="1010" y="145" text-anchor="middle" font-size="15" font-weight="700" fill="#1f2933">3. Structural prompt</text><text x="1010" y="167" text-anchor="middle" font-size="12" fill="#607080">Gemini-assisted with registry</text><text x="1010" y="182" text-anchor="middle" font-size="12" fill="#607080">guardrails</text><line x1="1010" y1="225" x2="220" y2="295" stroke="#aeb8c2" stroke-width="2.4" marker-end="url(#arrow)"/>
<rect x="70" y="295" width="300" height="105" rx="10" fill="#ffffff" stroke="#2f6f9f" stroke-width="2"/><text x="220" y="320" text-anchor="middle" font-size="15" font-weight="700" fill="#1f2933">4. Node selection</text><text x="220" y="342" text-anchor="middle" font-size="12" fill="#607080">Gemini-assisted with registry</text><text x="220" y="357" text-anchor="middle" font-size="12" fill="#607080">guardrails</text><line x1="370" y1="347" x2="465" y2="347" stroke="#aeb8c2" stroke-width="2.4" marker-end="url(#arrow)"/>
<rect x="465" y="295" width="300" height="105" rx="10" fill="#ffffff" stroke="#2a9d8f" stroke-width="2"/><text x="615" y="320" text-anchor="middle" font-size="15" font-weight="700" fill="#1f2933">5. Edge reasoning</text><text x="615" y="342" text-anchor="middle" font-size="12" fill="#607080">Gemini-assisted with registry</text><text x="615" y="357" text-anchor="middle" font-size="12" fill="#607080">guardrails</text><line x1="765" y1="347" x2="860" y2="347" stroke="#aeb8c2" stroke-width="2.4" marker-end="url(#arrow)"/>
<rect x="860" y="295" width="300" height="105" rx="10" fill="#ffffff" stroke="#2f6f9f" stroke-width="2"/><text x="1010" y="320" text-anchor="middle" font-size="15" font-weight="700" fill="#1f2933">6. Validation</text><text x="1010" y="342" text-anchor="middle" font-size="12" fill="#607080">Gemini-assisted with registry</text><text x="1010" y="357" text-anchor="middle" font-size="12" fill="#607080">guardrails</text><line x1="1010" y1="400" x2="220" y2="470" stroke="#aeb8c2" stroke-width="2.4" marker-end="url(#arrow)"/>
<rect x="70" y="470" width="300" height="105" rx="10" fill="#ffffff" stroke="#2a9d8f" stroke-width="2"/><text x="220" y="495" text-anchor="middle" font-size="15" font-weight="700" fill="#1f2933">7. Property population</text><text x="220" y="517" text-anchor="middle" font-size="12" fill="#607080">Gemini-assisted with registry</text><text x="220" y="532" text-anchor="middle" font-size="12" fill="#607080">guardrails</text><line x1="370" y1="522" x2="465" y2="522" stroke="#aeb8c2" stroke-width="2.4" marker-end="url(#arrow)"/>
<rect x="465" y="470" width="300" height="105" rx="10" fill="#ffffff" stroke="#2f6f9f" stroke-width="2"/><text x="615" y="495" text-anchor="middle" font-size="15" font-weight="700" fill="#1f2933">8. Credential</text><text x="615" y="513" text-anchor="middle" font-size="15" font-weight="700" fill="#1f2933">discovery</text><text x="615" y="535" text-anchor="middle" font-size="12" fill="#607080">Gemini-assisted with registry</text><text x="615" y="550" text-anchor="middle" font-size="12" fill="#607080">guardrails</text><line x1="765" y1="522" x2="860" y2="522" stroke="#aeb8c2" stroke-width="2.4" marker-end="url(#arrow)"/>
<rect x="860" y="470" width="300" height="105" rx="10" fill="#ffffff" stroke="#2a9d8f" stroke-width="2"/><text x="1010" y="495" text-anchor="middle" font-size="15" font-weight="700" fill="#1f2933">9. Field ownership +</text><text x="1010" y="513" text-anchor="middle" font-size="15" font-weight="700" fill="#1f2933">manifest</text><text x="1010" y="535" text-anchor="middle" font-size="12" fill="#607080">Gemini-assisted with registry</text><text x="1010" y="550" text-anchor="middle" font-size="12" fill="#607080">guardrails</text>
  </g>
</svg>