<svg xmlns="http://www.w3.org/2000/svg" width="1200" height="660" viewBox="0 0 1200 660">
  <defs>
    <marker id="arrow" viewBox="0 0 10 10" refX="9" refY="5" markerWidth="7" markerHeight="7" orient="auto-start-reverse">
      <path d="M 0 0 L 10 5 L 0 10 z" fill="#aeb8c2"/>
    </marker>
    <filter id="shadow" x="-10%" y="-10%" width="120%" height="120%">
      <feDropShadow dx="0" dy="2" stdDeviation="2" flood-color="#d7dde3" flood-opacity="0.9"/>
    </filter>
  </defs>
  <rect width="1200" height="660" fill="#f7fafc"/>
  <text x="34" y="42" font-size="24" font-weight="800" fill="#13293d">Graph Orchestration: Registry-Grounded DAG Correctness</text>
  <g filter="url(#shadow)">
  <rect x="70" y="140" width="220" height="105" rx="10" fill="#ffffff" stroke="#2a9d8f" stroke-width="2"/><text x="180" y="165" text-anchor="middle" font-size="15" font-weight="700" fill="#1f2933">Selected Nodes</text><text x="180" y="187" text-anchor="middle" font-size="12" fill="#607080">AI or manual builder output</text>
<rect x="385" y="80" width="250" height="105" rx="10" fill="#ffffff" stroke="#4f9d69" stroke-width="2"/><text x="510" y="105" text-anchor="middle" font-size="15" font-weight="700" fill="#1f2933">Unified Node Registry</text><text x="510" y="127" text-anchor="middle" font-size="12" fill="#607080">Node contracts, schemas,</text><text x="510" y="142" text-anchor="middle" font-size="12" fill="#607080">credentials</text>
<rect x="385" y="250" width="250" height="105" rx="10" fill="#ffffff" stroke="#2f6f9f" stroke-width="2"/><text x="510" y="275" text-anchor="middle" font-size="15" font-weight="700" fill="#1f2933">Graph Orchestrator</text><text x="510" y="297" text-anchor="middle" font-size="12" fill="#607080">Initialize, inject, remove,</text><text x="510" y="312" text-anchor="middle" font-size="12" fill="#607080">reconcile</text>
<rect x="730" y="80" width="250" height="105" rx="10" fill="#ffffff" stroke="#d49a2a" stroke-width="2"/><text x="855" y="105" text-anchor="middle" font-size="15" font-weight="700" fill="#1f2933">Execution Order</text><text x="855" y="127" text-anchor="middle" font-size="12" fill="#607080">Topological order and branch</text><text x="855" y="142" text-anchor="middle" font-size="12" fill="#607080">rules</text>
<rect x="730" y="250" width="250" height="105" rx="10" fill="#ffffff" stroke="#c8553d" stroke-width="2"/><text x="855" y="275" text-anchor="middle" font-size="15" font-weight="700" fill="#1f2933">Edge Reconciliation</text><text x="855" y="297" text-anchor="middle" font-size="12" fill="#607080">Ports, switch cases, merges</text>
<rect x="510" y="440" width="260" height="105" rx="10" fill="#ffffff" stroke="#2a9d8f" stroke-width="2"/><text x="640" y="465" text-anchor="middle" font-size="15" font-weight="700" fill="#1f2933">Validated Workflow DAG</text><text x="640" y="487" text-anchor="middle" font-size="12" fill="#607080">Single trigger, acyclic,</text><text x="640" y="502" text-anchor="middle" font-size="12" fill="#607080">executable</text>
<line x1="290" y1="192" x2="385" y2="132" stroke="#aeb8c2" stroke-width="2.4" marker-end="url(#arrow)"/>
<line x1="290" y1="192" x2="385" y2="302" stroke="#aeb8c2" stroke-width="2.4" marker-end="url(#arrow)"/>
<line x1="635" y1="132" x2="730" y2="132" stroke="#aeb8c2" stroke-width="2.4" marker-end="url(#arrow)"/>
<line x1="635" y1="302" x2="730" y2="302" stroke="#aeb8c2" stroke-width="2.4" marker-end="url(#arrow)"/>
<line x1="855" y1="185" x2="855" y2="250" stroke="#aeb8c2" stroke-width="2.4" marker-end="url(#arrow)"/>
<line x1="510" y1="355" x2="610" y2="440" stroke="#aeb8c2" stroke-width="2.4" marker-end="url(#arrow)"/>
<line x1="830" y1="355" x2="700" y2="440" stroke="#aeb8c2" stroke-width="2.4" marker-end="url(#arrow)"/>
  </g>
</svg>