<svg xmlns="http://www.w3.org/2000/svg" width="1200" height="660" viewBox="0 0 1200 660">
  <defs>
    <marker id="arrow" viewBox="0 0 10 10" refX="9" refY="5" markerWidth="7" markerHeight="7" orient="auto-start-reverse">
      <path d="M 0 0 L 10 5 L 0 10 z" fill="#aeb8c2"/>
    </marker>
    <filter id="shadow" x="-10%" y="-10%" width="120%" height="120%">
      <feDropShadow dx="0" dy="2" stdDeviation="2" flood-color="#d7dde3" flood-opacity="0.9"/>
    </filter>
  </defs>
  <rect width="1200" height="660" fill="#f7fafc"/>
  <text x="34" y="42" font-size="24" font-weight="800" fill="#13293d">Observability and Investor Control Points</text>
  <g filter="url(#shadow)">
  <rect x="80" y="140" width="210" height="95" rx="10" fill="#ffffff" stroke="#2a9d8f" stroke-width="2"/><text x="185" y="165" text-anchor="middle" font-size="15" font-weight="700" fill="#1f2933">Workflow Events</text><text x="185" y="187" text-anchor="middle" font-size="12" fill="#607080">Creation, save, execution,</text><text x="185" y="202" text-anchor="middle" font-size="12" fill="#607080">trigger</text>
<rect x="360" y="140" width="210" height="95" rx="10" fill="#ffffff" stroke="#2f6f9f" stroke-width="2"/><text x="465" y="165" text-anchor="middle" font-size="15" font-weight="700" fill="#1f2933">Structured Logs</text><text x="465" y="187" text-anchor="middle" font-size="12" fill="#607080">Correlation IDs, status,</text><text x="465" y="202" text-anchor="middle" font-size="12" fill="#607080">timing</text>
<rect x="640" y="140" width="210" height="95" rx="10" fill="#ffffff" stroke="#4f9d69" stroke-width="2"/><text x="745" y="165" text-anchor="middle" font-size="15" font-weight="700" fill="#1f2933">Usage Metrics</text><text x="745" y="187" text-anchor="middle" font-size="12" fill="#607080">AI calls, runs, retries,</text><text x="745" y="202" text-anchor="middle" font-size="12" fill="#607080">latency</text>
<rect x="920" y="140" width="210" height="95" rx="10" fill="#ffffff" stroke="#d49a2a" stroke-width="2"/><text x="1025" y="165" text-anchor="middle" font-size="15" font-weight="700" fill="#1f2933">Cost Controls</text><text x="1025" y="187" text-anchor="middle" font-size="12" fill="#607080">AI credits, execution caps,</text><text x="1025" y="202" text-anchor="middle" font-size="12" fill="#607080">overage</text>
<rect x="220" y="380" width="220" height="100" rx="10" fill="#ffffff" stroke="#c8553d" stroke-width="2"/><text x="330" y="405" text-anchor="middle" font-size="15" font-weight="700" fill="#1f2933">Risk Controls</text><text x="330" y="427" text-anchor="middle" font-size="12" fill="#607080">Rate limits, retry budgets,</text><text x="330" y="442" text-anchor="middle" font-size="12" fill="#607080">circuit breakers</text>
<rect x="510" y="380" width="220" height="100" rx="10" fill="#ffffff" stroke="#2a9d8f" stroke-width="2"/><text x="620" y="405" text-anchor="middle" font-size="15" font-weight="700" fill="#1f2933">Investor Dashboard</text><text x="620" y="427" text-anchor="middle" font-size="12" fill="#607080">COGS, margin, usage,</text><text x="620" y="442" text-anchor="middle" font-size="12" fill="#607080">reliability</text>
<rect x="800" y="380" width="220" height="100" rx="10" fill="#ffffff" stroke="#2f6f9f" stroke-width="2"/><text x="910" y="405" text-anchor="middle" font-size="15" font-weight="700" fill="#1f2933">Roadmap Gates</text><text x="910" y="427" text-anchor="middle" font-size="12" fill="#607080">Scale, compliance, enterprise</text><text x="910" y="442" text-anchor="middle" font-size="12" fill="#607080">readiness</text>
<line x1="290" y1="188" x2="360" y2="188" stroke="#aeb8c2" stroke-width="2.4" marker-end="url(#arrow)"/>
<line x1="570" y1="188" x2="640" y2="188" stroke="#aeb8c2" stroke-width="2.4" marker-end="url(#arrow)"/>
<line x1="850" y1="188" x2="920" y2="188" stroke="#aeb8c2" stroke-width="2.4" marker-end="url(#arrow)"/>
<line x1="745" y1="235" x2="620" y2="380" stroke="#aeb8c2" stroke-width="2.4" marker-end="url(#arrow)"/>
<line x1="1025" y1="235" x2="910" y2="380" stroke="#aeb8c2" stroke-width="2.4" marker-end="url(#arrow)"/>
<line x1="440" y1="430" x2="510" y2="430" stroke="#aeb8c2" stroke-width="2.4" marker-end="url(#arrow)"/>
<line x1="730" y1="430" x2="800" y2="430" stroke="#aeb8c2" stroke-width="2.4" marker-end="url(#arrow)"/>
  </g>
</svg>