<svg viewBox="0 0 512 512" xmlns="http://www.w3.org/2000/svg" fill-rule="evenodd" clip-rule="evenodd" stroke-linejoin="round" stroke-miterlimit="2"><path d="M269.434 290.625h63.068c17.938 0 29.294-9.862 29.294-25.706 0-14.944-11.356-25.706-29.294-25.706h-63.068c-2.094 0-3.888 1.794-3.888 3.587v44.238c.3 2.094 1.794 3.587 3.888 3.587zM269.434 392.557h65.162c20.031 0 31.988-10.163 31.988-28.1 0-15.544-11.363-28.1-31.988-28.1h-65.162c-2.094 0-3.888 1.793-3.888 3.587v48.725c.3 2.394 1.794 3.888 3.888 3.888z" fill="#34313f" fill-rule="nonzero"/><path d="M500.196 7.25L313.671 193.182h30.494c47.525 0 75.625 29.887 75.625 62.468 0 25.707-17.338 44.538-35.869 52.913-2.994 1.194-2.994 5.375.294 6.575 21.525 8.369 36.769 30.787 36.769 57.094 0 37.062-24.807 66.656-72.938 66.656H215.927c-2.093 0-3.887-1.794-3.887-3.588V294.513L7.284 498.369c-2.688 2.694-.894 7.475 2.987 7.475H502.59c1.794 0 3.287-1.494 3.287-3.287V9.944c.894-3.287-3.287-5.081-5.68-2.694z" fill="#34313f" fill-rule="nonzero"/></svg>