<svg xmlns="http://www.w3.org/2000/svg" viewBox="0 0 256 256" role="img" aria-labelledby="title desc">
  <title id="title">Mailgun</title>
  <desc id="desc">Mailgun integration logo</desc>
  <rect width="256" height="256" rx="48" fill="#f03f45"/>
  <path fill="#fff" d="M54 78h148c10 0 18 8 18 18v64c0 10-8 18-18 18H54c-10 0-18-8-18-18V96c0-10 8-18 18-18Zm6 22 68 46 68-46H60Zm-2 55 44-31-44-30v61Zm140 0V94l-44 30 44 31Zm-70 16 47-33-47 32-47-32 47 33Z"/>
  <path fill="#fff" d="M91 57h74v13H91z"/>
  <path fill="#fff" d="M77 188h102v13H77z" opacity=".86"/>
</svg>
