<?xml version="1.0" encoding="UTF-8"?>
<svg version="1.1" xmlns="http://www.w3.org/2000/svg" width="600" height="600">
<path d="M0 0 C198 0 396 0 600 0 C600 198 600 396 600 600 C402 600 204 600 0 600 C0 402 0 204 0 0 Z " fill="#FEFEFE" transform="translate(0,0)"/>
<path d="M0 0 C3.87068775 1.495493 7.80772703 2.76974166 11.75 4.0625 C17.25535639 5.86782791 22.65001874 7.77084114 28 10 C31.87068775 11.495493 35.80772703 12.76974166 39.75 14.0625 C45.25535639 15.86782791 50.65001874 17.77084114 56 20 C59.87068775 21.495493 63.80772703 22.76974166 67.75 24.0625 C73.25535639 25.86782791 78.65001874 27.77084114 84 30 C87.87068775 31.495493 91.80772703 32.76974166 95.75 34.0625 C101.25535639 35.86782791 106.65001874 37.77084114 112 40 C115.87068775 41.495493 119.80772703 42.76974166 123.75 44.0625 C129.25535639 45.86782791 134.65001874 47.77084114 140 50 C143.87068775 51.495493 147.80772703 52.76974166 151.75 54.0625 C157.25535639 55.86782791 162.65001874 57.77084114 168 60 C171.87068775 61.495493 175.80772703 62.76974166 179.75 64.0625 C185.25535639 65.86782791 190.65001874 67.77084114 196 70 C199.87068775 71.495493 203.80772703 72.76974166 207.75 74.0625 C213.25535639 75.86782791 218.65001874 77.77084114 224 80 C227.87068775 81.495493 231.80772703 82.76974166 235.75 84.0625 C241.25535639 85.86782791 246.65001874 87.77084114 252 90 C256.59685611 91.77605804 261.29078663 93.27003895 265.98046875 94.78125 C269.94172316 96.07128683 273.81822132 97.46770722 277.67578125 99.04296875 C282.68872752 101.08162495 287.78331285 102.73527314 292.9375 104.375 C305.06493236 108.34075105 316.92499498 112.66699918 326.75 121.0625 C327.63365234 121.71605469 327.63365234 121.71605469 328.53515625 122.3828125 C334.05195449 126.62650346 337.35673291 132.05708918 340.75 138.0625 C341.40742187 139.21298828 341.40742187 139.21298828 342.078125 140.38671875 C345.59170201 147.27778351 345.91663844 153.75077636 343.90234375 161.1953125 C338.09895953 177.52347827 326.03277779 195.9852128 310.75 205.0625 C305.65271258 207.46637097 300.3600396 209.36377113 295.05175781 211.2421875 C292.18319593 212.2645006 289.33902685 213.34551193 286.4934082 214.4296875 C279.69269142 217.01504266 272.84870022 219.47694936 265.9921875 221.91015625 C262.12806995 223.28354743 258.27371416 224.68244098 254.421875 226.08984375 C252.53859322 226.7754244 250.6529414 227.45451178 248.765625 228.12890625 C247.79109375 228.47824219 246.8165625 228.82757813 245.8125 229.1875 C244.93722656 229.49945313 244.06195313 229.81140625 243.16015625 230.1328125 C240.76345526 230.99864193 240.76345526 230.99864193 238.68359375 232.1796875 C236.75 233.0625 236.75 233.0625 232.75 233.0625 C232.73018066 231.8979126 232.71036133 230.7333252 232.68994141 229.53344727 C232.61338298 225.17777311 232.52474639 220.82241134 232.43261719 216.46704102 C232.39453368 214.58852341 232.35964634 212.709938 232.328125 210.83129883 C232.28202287 208.11775614 232.22410715 205.40467208 232.1640625 202.69140625 C232.14673569 201.44865685 232.14673569 201.44865685 232.12905884 200.18080139 C231.91293188 191.47739176 230.13907803 183.88258684 226.1875 176.125 C225.83598877 175.4347876 225.48447754 174.7445752 225.12231445 174.03344727 C219.52246243 163.46747896 212.05528971 156.94900639 201.75 151.0625 C200.96496094 150.55460938 200.17992187 150.04671875 199.37109375 149.5234375 C196.19573946 147.7535679 193.02775495 146.72023602 189.5625 145.625 C185.26372954 144.23875155 180.99652597 142.8327657 176.8125 141.125 C172.40548005 139.32817811 167.99613337 137.54268603 163.5625 135.8125 C162.89677979 135.54187744 162.23105957 135.27125488 161.54516602 134.99243164 C157.14542769 133.29349028 153.53699064 132.68704975 148.75 133.0625 C144.9228839 134.76344049 143.29608777 136.21630066 141.75 140.0625 C141.45895876 142.32775316 141.45895876 142.32775316 141.51190186 144.7661438 C141.50940933 145.70799026 141.50691681 146.64983673 141.50434875 147.620224 C141.51161484 148.6467659 141.51888092 149.6733078 141.52636719 150.73095703 C141.52575539 152.36096901 141.52575539 152.36096901 141.52513123 154.02391052 C141.52493362 156.38491247 141.52897607 158.74591768 141.53673553 161.10690689 C141.54695234 164.84863577 141.54158253 168.59003106 141.53131104 172.33175659 C141.50332641 182.97092758 141.4903261 193.60985865 141.52001953 204.24902344 C141.53677431 210.7572053 141.52438938 217.26479215 141.49356842 223.77291489 C141.48747426 226.24871446 141.49230678 228.72456673 141.50844574 231.2003212 C141.53013267 234.67343275 141.5146893 238.14461593 141.49121094 241.61767578 C141.50657394 242.6320723 141.52193695 243.64646881 141.5377655 244.69160461 C141.43075767 252.14126721 139.25185156 257.1410613 134.75 263.0625 C129.01557848 268.52385383 124.49357995 269.45779853 116.66235352 269.43041992 C110.34188573 269.27060941 105.47913679 267.52698901 99.75 265.0625 C97.48433634 264.23569383 95.21312003 263.42399548 92.9375 262.625 C91.16439453 261.99271484 91.16439453 261.99271484 89.35546875 261.34765625 C88.16566406 260.92355469 86.97585937 260.49945313 85.75 260.0625 C83.41660795 259.22933109 81.08327421 258.39599885 78.75 257.5625 C77.595 257.15 76.44 256.7375 75.25 256.3125 C-5.25 227.5625 -5.25 227.5625 -8.7578125 226.30859375 C-11.06416155 225.48563475 -13.37143837 224.66527069 -15.6796875 223.84765625 C-17.98250127 223.03044456 -20.28328607 222.20749349 -22.58203125 221.37890625 C-25.2204982 220.43198041 -27.86228764 219.50477665 -30.51171875 218.58984375 C-31.94552197 218.08131939 -33.37911984 217.57221563 -34.8125 217.0625 C-35.81289307 216.72520874 -35.81289307 216.72520874 -36.83349609 216.38110352 C-41.3648439 214.74449544 -44.0820527 212.65777832 -47.25 209.0625 C-47.971875 208.258125 -48.69375 207.45375 -49.4375 206.625 C-53.08317208 201.47077396 -53.54405097 196.33981383 -53.51742554 190.18167114 C-53.52422221 189.01863569 -53.52422221 189.01863569 -53.53115618 187.83210456 C-53.54377893 185.24363999 -53.5421812 182.6553864 -53.54052734 180.06689453 C-53.54651388 178.20708954 -53.55331972 176.34728704 -53.56088257 174.48748779 C-53.57853597 169.44199899 -53.58323764 164.39657805 -53.58451414 159.35106134 C-53.58593655 156.19742154 -53.59020783 153.04379895 -53.59550858 149.89016342 C-53.61400592 138.88428402 -53.62217946 127.87845303 -53.62060547 116.87255859 C-53.61940381 106.61943266 -53.64051181 96.36651714 -53.6720928 86.11344445 C-53.69825635 77.30476872 -53.70897275 68.49616171 -53.70769465 59.68744743 C-53.70718509 54.42894775 -53.71286538 49.17063514 -53.73405075 43.91217422 C-53.75343465 38.96595711 -53.75355649 34.02010554 -53.73901749 29.07387543 C-53.73692856 27.2614857 -53.74163528 25.44907308 -53.7537384 23.63672256 C-53.76922541 21.15648669 -53.75986086 18.6775059 -53.74447632 16.19729614 C-53.75476344 15.48541142 -53.76505057 14.77352669 -53.77564943 14.0400697 C-53.68846075 7.65018321 -51.45151886 2.57477003 -47.28515625 -2.1796875 C-46.63417969 -2.71851563 -45.98320313 -3.25734375 -45.3125 -3.8125 C-44.66410156 -4.36679687 -44.01570313 -4.92109375 -43.34765625 -5.4921875 C-30.1795274 -14.56519993 -12.98436984 -5.4101541 0 0 Z " fill="#0B53CE" transform="translate(153.25,38.9375)"/>
<path d="M0 0 C0.33 0 0.66 0 1 0 C1.11426505 29.30004838 1.20265232 58.60008085 1.25532665 87.90030676 C1.26157957 91.36591126 1.26805124 94.83151531 1.2746582 98.29711914 C1.27596976 98.98700711 1.27728131 99.67689508 1.2786326 100.38768875 C1.30034055 111.53238239 1.33973634 122.676946 1.38576398 133.82156271 C1.43265758 145.27205291 1.45994869 156.72243798 1.47044247 168.17302698 C1.47694388 174.59834589 1.49215547 181.02337067 1.52865028 187.44859505 C1.56277061 193.50525543 1.57302053 199.56150252 1.56553841 205.61824989 C1.56690579 207.8324636 1.57674177 210.04669216 1.59602737 212.2608223 C1.75741328 231.7573497 -1.1720245 248.99512935 -15.125 263.75 C-23.60479128 271.80465269 -33.00436442 276.3837883 -44 280 C-53.49663814 283.25391919 -53.49663814 283.25391919 -62.75 287.125 C-66.61097699 288.90864243 -70.51734579 290.12034818 -74.6015625 291.2890625 C-77.42048506 292.12463889 -80.14093166 293.13038931 -82.8828125 294.1875 C-85.34900703 295.13393628 -87.82915974 296.03702534 -90.3125 296.9375 C-91.2509375 297.2778125 -92.189375 297.618125 -93.15625 297.96875 C-94.0946875 298.3090625 -95.033125 298.649375 -96 299 C-97.31484375 299.47953125 -97.31484375 299.47953125 -98.65625 299.96875 C-99.97109375 300.44828125 -99.97109375 300.44828125 -101.3125 300.9375 C-102.21355469 301.26621094 -103.11460937 301.59492188 -104.04296875 301.93359375 C-106.18767257 302.70704704 -108.33670849 303.46852156 -110.48828125 304.22265625 C-118.21624729 306.93032869 -118.21624729 306.93032869 -125.75 310.125 C-129.61097699 311.90864243 -133.51734579 313.12034818 -137.6015625 314.2890625 C-140.42048506 315.12463889 -143.14093166 316.13038931 -145.8828125 317.1875 C-148.34900703 318.13393628 -150.82915974 319.03702534 -153.3125 319.9375 C-154.2509375 320.2778125 -155.189375 320.618125 -156.15625 320.96875 C-157.0946875 321.3090625 -158.033125 321.649375 -159 322 C-160.31484375 322.47953125 -160.31484375 322.47953125 -161.65625 322.96875 C-162.97109375 323.44828125 -162.97109375 323.44828125 -164.3125 323.9375 C-165.21355469 324.26621094 -166.11460937 324.59492187 -167.04296875 324.93359375 C-169.18767257 325.70704704 -171.33670849 326.46852156 -173.48828125 327.22265625 C-181.21624729 329.93032869 -181.21624729 329.93032869 -188.75 333.125 C-192.61097699 334.90864243 -196.51734579 336.12034818 -200.6015625 337.2890625 C-203.42048506 338.12463889 -206.14093166 339.13038931 -208.8828125 340.1875 C-211.34900703 341.13393628 -213.82915974 342.03702534 -216.3125 342.9375 C-217.2509375 343.2778125 -218.189375 343.618125 -219.15625 343.96875 C-220.0946875 344.3090625 -221.033125 344.649375 -222 345 C-222.8765625 345.3196875 -223.753125 345.639375 -224.65625 345.96875 C-225.5328125 346.2884375 -226.409375 346.608125 -227.3125 346.9375 C-228.21355469 347.26621094 -229.11460937 347.59492187 -230.04296875 347.93359375 C-232.18767257 348.70704704 -234.33670849 349.46852156 -236.48828125 350.22265625 C-244.15196726 352.90313488 -244.15196726 352.90313488 -251.625 356.0625 C-261.02533455 360.3274666 -270.88633369 364.37644646 -281.25390625 361.33984375 C-288.53509395 358.1482795 -292.93666226 352.16677883 -296 345 C-296.2817075 342.27073527 -296.41447085 339.77402178 -296.39440918 337.04997253 C-296.40050028 336.26715402 -296.40659139 335.48433551 -296.41286707 334.67779523 C-296.42946906 332.06393783 -296.42472531 329.45056907 -296.41992188 326.83666992 C-296.42726391 324.95878088 -296.43585053 323.08089635 -296.44558716 321.20301819 C-296.46779953 316.10785038 -296.47073391 311.01284431 -296.46883965 305.91763473 C-296.46871991 301.66080012 -296.47728531 297.40399974 -296.48561716 293.14717466 C-296.50485085 283.10159254 -296.50773542 273.05609353 -296.50097656 263.01049805 C-296.49433801 252.65622636 -296.51719287 242.30231111 -296.55429029 231.94811171 C-296.58500725 223.05108756 -296.59634508 214.15417794 -296.59245348 205.25710183 C-296.59038778 199.9465574 -296.59583751 194.63629024 -296.62034607 189.32579613 C-296.64264305 184.32943424 -296.64071067 179.33365076 -296.62041855 174.337286 C-296.61701356 172.50757903 -296.6220755 170.67783291 -296.63640213 168.84817886 C-296.76923556 150.62064642 -296.76923556 150.62064642 -291 144 C-285.5668555 138.78993964 -279.4914855 136.31838173 -272.4375 133.9375 C-271.47384521 133.59952393 -270.51019043 133.26154785 -269.51733398 132.91333008 C-262.77114978 130.55972255 -255.99452411 128.28908827 -249.19140625 126.10546875 C-245.92709263 125.01807971 -245.92709263 125.01807971 -242.55859375 123.51953125 C-237.71043997 121.44935362 -232.73276013 119.89733591 -227.71875 118.28125 C-224.03857773 117.01329149 -220.56040256 115.56691501 -217 114 C-215.60952355 113.42438539 -214.21470389 112.85892584 -212.8125 112.3125 C-212.17957031 112.06113281 -211.54664063 111.80976563 -210.89453125 111.55078125 C-209 111 -209 111 -205 111 C-204.99780016 112.04306525 -204.99780016 112.04306525 -204.99555588 113.10720253 C-204.95849132 130.03350891 -204.89948144 146.95958238 -204.81609726 163.88572121 C-204.77630136 172.07111563 -204.74391171 180.25641383 -204.72900391 188.44189453 C-204.7159902 195.57703568 -204.68903288 202.71196518 -204.64538693 209.84698713 C-204.62276557 213.62437859 -204.60708971 217.40150894 -204.60811615 221.17897415 C-204.60886239 224.73647755 -204.59092727 228.2934036 -204.55883217 231.8507576 C-204.54628808 233.77471156 -204.55340011 235.69876242 -204.56114197 237.6227417 C-204.46163596 246.11047438 -204.46163596 246.11047438 -200 253 C-195.24455628 255.37772186 -190.30698295 254.38929127 -185.42626953 252.93554688 C-181.26299858 251.48247726 -177.16371561 249.86817308 -173.0625 248.25 C-171.64700768 247.70436964 -170.23099439 247.16008882 -168.81445312 246.6171875 C-164.86769165 245.09952996 -160.93294058 243.55312574 -157 242 C-155.49638916 241.41049561 -155.49638916 241.41049561 -153.96240234 240.80908203 C-137.46588765 234.29463264 -125.83459867 225.28639588 -118.5625 208.7265625 C-114.67401893 199.07164076 -113.85064848 190.86049651 -113.79467773 180.55688477 C-113.78477814 179.42444839 -113.77487854 178.29201202 -113.76467896 177.1252594 C-113.73319413 173.39732932 -113.70835808 169.66938652 -113.68359375 165.94140625 C-113.66301298 163.35065894 -113.64201622 160.7599149 -113.62062073 158.16917419 C-113.5711426 152.05663289 -113.52584745 145.94407382 -113.48259836 139.83148569 C-113.43310039 132.86891078 -113.37822911 125.90638142 -113.32291877 118.94385064 C-113.20932355 104.62927658 -113.10243621 90.31465804 -113 76 C-111.99839844 75.67386719 -110.99679687 75.34773438 -109.96484375 75.01171875 C-108.6223418 74.57047685 -107.27989693 74.12906129 -105.9375 73.6875 C-105.28072266 73.47416016 -104.62394531 73.26082031 -103.94726562 73.04101562 C-99.51529773 71.5782479 -95.27200001 69.87944721 -91 68 C-88.56738421 67.04461624 -86.1344173 66.10427793 -83.6875 65.1875 C-83.00888916 64.93250732 -82.33027832 64.67751465 -81.63110352 64.41479492 C-75.53976964 62.15158694 -69.38832077 60.08596928 -63.20385742 58.0925293 C-59.86177811 57.00512691 -56.65718849 55.85292039 -53.421875 54.46484375 C-49.93013157 52.97009057 -46.44443766 51.85554158 -42.8125 50.75 C-26.64569545 45.52623042 -14.17966026 35.9851376 -6 21 C-5.58878906 20.24847656 -5.17757813 19.49695313 -4.75390625 18.72265625 C-1.80051864 12.74015314 -0.84567792 6.57625855 0 0 Z " fill="#0B53CE" transform="translate(499,208)"/>
<path d="M0 0 C0.33 0 0.66 0 1 0 C1 76.56 1 153.12 1 232 C0.67 232 0.34 232 0 232 C-0.33 160.39 -0.66 88.78 -1 15 C-1.99 15.495 -1.99 15.495 -3 16 C-2.01 10.72 -1.02 5.44 0 0 Z " fill="#2263D2" transform="translate(499,208)"/>
<path d="M0 0 C0.66 0.33 1.32 0.66 2 1 C-0.97 3.97 -3.94 6.94 -7 10 C-7.33 9.34 -7.66 8.68 -8 8 C-5.58443874 4.80800833 -3.31996462 2.25283313 0 0 Z " fill="#336FD5" transform="translate(214,347)"/>
</svg>
